<svg width="22" height="22" viewBox="0 0 22 22" fill="none" xmlns="http://www.w3.org/2000/svg">
<path d="M16.0446 0H5.9554C2.6719 0 0 2.6719 0 5.9554V16.0457C0 19.3281 2.6719 22 5.9554 22H16.0457C19.3281 22 22 19.3281 22 16.0446V5.9554C22 2.6719 19.3281 0 16.0446 0ZM20.7108 16.0446C20.7108 18.6175 18.6175 20.7097 16.0457 20.7097H5.9554C3.3825 20.7097 1.2903 18.6164 1.2903 16.0446V5.9554C1.2903 3.3825 3.3836 1.2903 5.9554 1.2903H16.0457C18.6186 1.2903 20.7108 3.3836 20.7108 5.9554V16.0446ZM11 4.9841C7.6835 4.9841 4.9841 7.6824 4.9841 11C4.9841 14.3176 7.6835 17.0159 11 17.0159C14.3165 17.0159 17.0159 14.3176 17.0159 11C17.0159 7.6824 14.3165 4.9841 11 4.9841ZM11 15.7256C8.3941 15.7256 6.2744 13.6059 6.2744 11C6.2744 8.3941 8.3941 6.2744 11 6.2744C13.6059 6.2744 15.7256 8.3941 15.7256 11C15.7256 13.6059 13.6059 15.7256 11 15.7256ZM17.1589 2.8479C16.1788 2.8479 15.3813 3.6454 15.3813 4.6255C15.3813 5.6056 16.1788 6.4031 17.1589 6.4031C18.139 6.4031 18.9365 5.6056 18.9365 4.6255C18.9365 3.6454 18.139 2.8479 17.1589 2.8479ZM17.1589 5.1139C16.8905 5.1139 16.6716 4.895 16.6716 4.6266C16.6716 4.3571 16.8905 4.1393 17.1589 4.1393C17.4284 4.1393 17.6473 4.3582 17.6473 4.6266C17.6473 4.895 17.4284 5.1139 17.1589 5.1139Z" fill="white"/>
</svg>
