<svg width="123" height="123" viewBox="0 0 123 123" fill="none" xmlns="http://www.w3.org/2000/svg">
<path fill-rule="evenodd" clip-rule="evenodd" d="M38.8531 52.1271C43.58 40.6248 54.8936 28.0525 58.3448 24.3751V20.4412L57.3305 21.4667C56.5998 22.2091 43.3252 35.7738 37.1155 49.2029C36.6059 50.3053 36.1457 51.402 35.7425 52.4987C34.6333 55.4998 33.9546 58.4464 33.9546 61.1744C33.9546 80.0106 55.2408 83.5191 55.4544 83.5514L57.0781 83.8022L54.2264 80.5502C49.5349 79.3932 36.7485 74.9684 36.7485 61.1735C36.7485 59.2368 37.1353 57.1577 37.8058 55.0074C37.9517 54.5331 38.7368 52.5036 38.8531 52.1271Z" fill="#D5AB30"/>
<path fill-rule="evenodd" clip-rule="evenodd" d="M24.4687 54.697C24.4687 48.9785 25.4987 42.6104 29.9824 35.4353C30.3205 32.6965 30.9786 30.0165 32.0878 27.4855C23.5533 37.2198 21.542 47.7072 21.542 54.697C21.542 79.6224 43.0945 90.8308 58.3994 90.8308V88.0258C44.3109 88.0258 24.4687 77.6856 24.4687 54.697Z" fill="#D5AB30"/>
<path fill-rule="evenodd" clip-rule="evenodd" d="M58.3451 3.52507V0L57.4487 0.720905C57.1955 0.922858 51.1771 5.77883 45.0606 12.8074C36.743 22.3671 32.5249 30.9335 32.5249 38.2783C32.5249 39.8062 32.5835 41.3449 32.7368 42.867C32.8696 44.1879 33.0741 45.4973 33.3883 46.7901C33.6654 47.9307 34.0299 49.0547 34.5041 50.1348C34.8241 50.8664 35.1704 51.5807 35.61 52.252C36.0206 52.8793 36.4767 53.4794 36.9715 54.0472C38.027 55.2589 39.2649 56.2298 40.5621 57.1849C41.2267 57.6757 41.9145 58.1781 42.5454 58.7128C49.7175 64.7639 53.7319 72.2776 54.2275 80.5229L57.0792 83.7748L57.0751 82.1981C57.052 72.5019 52.6656 63.6838 44.391 56.6991C43.6908 56.104 42.9651 55.5693 42.2625 55.057C41.6366 54.5935 41.0074 54.1349 40.412 53.6334C40.1209 53.3933 39.838 53.1417 39.5692 52.8752C39.4364 52.7436 39.3061 52.6137 39.1808 52.4771C38.7396 51.9913 38.3511 51.4673 38.004 50.9219C37.6477 50.3599 37.3838 49.7764 37.1166 49.1755C35.8854 46.3978 35.3205 42.9166 35.3205 38.2783C35.3197 23.9819 53.9933 7.23057 58.3451 3.52507Z" fill="#D5AB30"/>
<path fill-rule="evenodd" clip-rule="evenodd" d="M77.735 52.1271C73.0081 40.6248 61.6945 28.0525 58.2441 24.3751V20.4412L59.2577 21.4667C59.9875 22.2091 73.2629 35.7738 79.4734 49.2029C79.9831 50.3053 80.4432 51.402 80.8465 52.4987C81.9557 55.4998 82.6335 58.4464 82.6335 61.1744C82.6335 80.0106 61.349 83.5191 61.1338 83.5514L59.51 83.8022L62.3617 80.5502C67.0532 79.3932 79.8387 74.9684 79.8387 61.1735C79.8387 59.2368 79.4528 57.1577 78.7815 55.0074C78.638 54.5331 77.8521 52.5036 77.735 52.1271Z" fill="#D5AB30"/>
<path fill-rule="evenodd" clip-rule="evenodd" d="M92.2245 54.697C92.2245 48.9785 91.1945 42.6104 86.7108 35.4353C86.3719 32.6965 85.7146 30.0165 84.6054 27.4855C93.1399 37.2198 95.152 47.7072 95.152 54.6978C95.152 79.6232 73.5995 90.8316 58.2954 90.8316V88.0266C72.3831 88.0258 92.2245 77.6856 92.2245 54.697Z" fill="#D5AB30"/>
<path fill-rule="evenodd" clip-rule="evenodd" d="M58.2451 3.52507V0L59.1415 0.720905C59.3939 0.922858 65.4123 5.77883 71.5288 12.8074C79.8471 22.3671 84.0653 30.9344 84.0653 38.2792C84.0653 39.807 84.0067 41.3457 83.8533 42.8678C83.7206 44.1888 83.5161 45.4981 83.2027 46.791C82.9248 47.9315 82.5603 49.0555 82.0877 50.1356C81.767 50.8673 81.4206 51.5816 80.9794 52.2528C80.5687 52.8802 80.1143 53.4802 79.6187 54.048C78.5648 55.2597 77.3261 56.2306 76.0281 57.1857C75.3635 57.6766 74.6757 58.179 74.0456 58.7136C66.8736 64.7648 62.8591 72.2784 62.3627 80.5237L59.511 83.7756L59.5151 82.1989C59.5398 72.5027 63.9254 63.6847 72.1992 56.6999C72.9002 56.1048 73.6267 55.5701 74.3285 55.0578C74.9552 54.5943 75.5836 54.1358 76.1799 53.6342C76.4701 53.3942 76.7538 53.1425 77.0218 52.876C77.1554 52.7444 77.2849 52.6145 77.4103 52.4779C77.8506 51.9921 78.2407 51.4682 78.5879 50.9227C78.9441 50.3607 79.208 49.7772 79.4752 49.1763C80.7056 46.3987 81.2713 42.9174 81.2713 38.2792C81.2697 23.9819 62.596 7.23057 58.2451 3.52507Z" fill="#D5AB30"/>
<path d="M58.1871 84.2284C66.5113 84.2284 73.2594 77.4556 73.2594 69.1009C73.2594 60.7463 66.5113 53.9735 58.1871 53.9735C49.8629 53.9735 43.1147 60.7463 43.1147 69.1009C43.1147 77.4556 49.8629 84.2284 58.1871 84.2284Z" fill="#D5AB30"/>
<path fill-rule="evenodd" clip-rule="evenodd" d="M12.3493 102.58V122.235H9.82008V117.13H3.84457C3.19144 118.823 2.76509 120.524 2.56635 122.235H0C0.453564 118.304 1.79117 114.573 4.01198 111.043C6.23362 107.512 9.01273 104.691 12.3493 102.58ZM4.89602 114.619H9.81925V107.794C7.79718 109.778 6.1561 112.052 4.89602 114.619ZM18.6324 113.909C19.8381 113.8 20.8582 113.353 21.6969 112.571C22.6081 111.752 23.0658 110.76 23.0658 109.596C23.0658 108.377 22.5718 107.348 21.5789 106.511C20.6273 105.729 19.5255 105.337 18.2786 105.337V122.236H15.7494V102.58C17.8713 102.58 19.4579 102.753 20.5093 103.099C21.9962 103.591 23.2027 104.4 24.1271 105.529C25.106 106.73 25.5959 108.086 25.5959 109.597C25.5959 110.853 25.2553 112.004 24.5758 113.051C23.8954 114.097 22.9842 114.921 21.842 115.521C23.2019 117.959 24.8067 119.607 26.6564 120.462V123.001C22.8481 121.653 20.1737 118.622 18.6324 113.909ZM43.6296 121.826C42.1427 122.608 40.5561 122.999 38.8696 122.999C35.9685 122.999 33.4928 121.962 31.4444 119.887C29.3951 117.812 28.3708 115.319 28.3708 112.407C28.3708 109.477 29.391 106.98 31.4312 104.914C33.4714 102.848 35.9511 101.815 38.8704 101.815C41.3914 101.815 43.6939 102.698 45.7795 104.463V108.368C45.0538 107.102 44.079 106.115 42.8643 105.4C41.6446 104.686 40.312 104.327 38.8564 104.327C36.6579 104.327 34.7851 105.123 33.2306 106.711C31.6761 108.3 30.9001 110.197 30.9001 112.408C30.9001 114.637 31.6802 116.54 33.2397 118.118C34.7991 119.698 36.681 120.489 38.8836 120.489C39.6498 120.489 40.3887 120.38 41.1003 120.161V112.353H43.6296V121.826ZM47.329 102.58H49.8591V117.239C49.8591 118.204 50.1716 119 50.7926 119.628C51.4136 120.255 52.2069 120.57 53.1775 120.57C54.1836 120.57 54.986 120.265 55.5888 119.655C56.1916 119.045 56.4951 118.24 56.4951 117.239V102.58H59.0252V117.239C59.0252 118.896 58.4628 120.269 57.3388 121.362C56.2139 122.454 54.8268 123 53.1767 123C51.5265 123 50.1395 122.45 49.0146 121.348C47.8906 120.247 47.3282 118.877 47.3282 117.239V102.58H47.329ZM75.7262 106.265C73.8633 107.503 72.6527 109.086 72.0862 111.015C71.7192 112.253 71.5378 114.291 71.5378 117.131H69.0077C69.0077 115.693 68.9624 114.447 68.8717 113.391C68.7265 111.735 68.3505 110.365 67.7476 109.282C67.1448 108.2 66.1701 107.212 64.8193 106.32V122.235H62.29V102.58C63.6862 102.58 65.2365 103.217 66.9411 104.491C68.5913 105.728 69.6971 107.02 70.2596 108.368C70.8393 107.021 71.9683 105.719 73.6456 104.463C75.323 103.208 76.8602 102.58 78.2563 102.58V122.235H75.7271V106.265H75.7262ZM83.5325 113.69C83.8591 115.62 84.7794 117.225 86.2935 118.509C87.8075 119.792 89.5352 120.433 91.4756 120.433V123C88.5745 123 86.0988 121.963 84.0504 119.888C82.0011 117.813 80.9769 115.32 80.9769 112.408C80.9769 109.478 81.997 106.98 84.0372 104.914C86.0774 102.849 88.5572 101.816 91.4765 101.816V104.382C89.5179 104.382 87.7861 105.02 86.2811 106.293C84.7761 107.567 83.8599 109.179 83.5341 111.125H91.4765V113.692H83.5325V113.69ZM94.63 102.58C96.7197 102.889 98.7368 103.735 100.682 105.118C102.559 106.428 104.064 108.021 105.211 109.895V102.579H107.741V122.234H105.211V117.676C105.211 115.837 104.663 113.999 103.57 112.161C102.581 110.468 101.294 109.021 99.7074 107.82C98.7739 107.11 97.9253 106.61 97.1592 106.318V122.234H94.63V102.58ZM117.696 122.235H115.166V104.463C113.624 104.737 112.192 105.491 110.868 106.73L109.943 104.136C111.992 102.59 114.16 101.816 116.444 101.816C118.982 101.816 121.168 102.59 122.999 104.136L122.043 106.73C120.583 105.547 119.136 104.791 117.695 104.463V122.235H117.696Z" fill="#D5AB30"/>
</svg>
