<svg width="41" height="9" viewBox="0 0 41 9" fill="none" xmlns="http://www.w3.org/2000/svg">
<path d="M40.2785 3.77419H2.46881L4.9997 1.24026C5.2821 0.957477 5.28319 0.49794 5.00212 0.213824C4.72105 -0.0703304 4.26425 -0.0713895 3.98185 0.211352L0.212256 3.98555C0.211997 3.98577 0.211831 3.98601 0.211609 3.98624C-0.0700715 4.26901 -0.0709764 4.73004 0.211536 5.01376C0.211794 5.01399 0.21196 5.01423 0.212182 5.01445L3.98176 8.78865C4.26412 9.07135 4.72092 9.07037 5.00203 8.78618C5.2831 8.50206 5.28201 8.04252 4.99961 7.75974L2.46881 5.22581H40.2786C40.677 5.22581 41 4.90087 41 4.49999C41 4.09913 40.677 3.77419 40.2785 3.77419Z" fill="#3C504F"/>
</svg>
