<svg width="41" height="9" viewBox="0 0 41 9" fill="none" xmlns="http://www.w3.org/2000/svg">
<path d="M0.721451 3.77419H38.5312L36.0003 1.24026C35.7179 0.957477 35.7168 0.49794 35.9979 0.213824C36.2789 -0.0703304 36.7357 -0.0713895 37.0181 0.211352L40.7877 3.98555C40.788 3.98577 40.7882 3.98601 40.7884 3.98624C41.0701 4.26901 41.071 4.73004 40.7885 5.01376C40.7882 5.01399 40.788 5.01423 40.7878 5.01445L37.0182 8.78865C36.7359 9.07135 36.2791 9.07037 35.998 8.78618C35.7169 8.50206 35.718 8.04252 36.0004 7.75974L38.5312 5.22581H0.721432C0.322994 5.22581 0 4.90087 0 4.49999C1.90735e-05 4.09913 0.323013 3.77419 0.721451 3.77419Z" fill="#3C504F"/>
</svg>
