<svg width="22" height="27" viewBox="0 0 22 27" fill="none" xmlns="http://www.w3.org/2000/svg">
<path d="M20.5242 6.9363C20.5002 6.6438 20.2568 6.4197 19.9671 6.4224H15.7327V4.797C15.7327 2.1474 13.612 0 10.9972 0C8.38162 0 6.26176 2.1474 6.26176 4.797V6.4224H2.02648C1.73862 6.4242 1.49785 6.6456 1.46942 6.9363L0.00968169 23.9355C-0.0569527 24.7239 0.206031 25.5042 0.734664 26.0865C1.2633 26.6697 2.00871 27.0009 2.78967 27H19.2084C19.9893 27.0009 20.7347 26.6697 21.2634 26.0865C21.792 25.5042 22.055 24.723 21.9884 23.9355L20.5242 6.9363ZM7.375 4.797C7.375 2.7711 8.99644 1.1286 10.9964 1.1286C12.9963 1.1286 14.6177 2.7711 14.6177 4.797V6.4224H7.375V4.797ZM20.4407 25.3242C20.1253 25.6752 19.6775 25.875 19.2093 25.8714H2.78434C2.31612 25.8714 1.86834 25.6725 1.55204 25.3233C1.23575 24.9732 1.07761 24.5052 1.11848 24.0318L2.53379 7.5519H6.26087V11.0736C5.36531 11.3526 4.80558 12.2544 4.94507 13.1931C5.08455 14.1318 5.88061 14.8266 6.81794 14.8266C7.75526 14.8266 8.55132 14.1318 8.69081 13.1931C8.83029 12.2535 8.27057 11.3526 7.375 11.0736V7.5456H14.6177V11.0727C13.7221 11.3517 13.1624 12.2535 13.3019 13.1922C13.4414 14.1309 14.2374 14.8257 15.1748 14.8257C16.1121 14.8257 16.9082 14.1309 17.0476 13.1922C17.1871 12.2526 16.6274 11.3517 15.7318 11.0727V7.5456H19.4536L20.8689 24.0255C20.9151 24.5007 20.7587 24.9723 20.4407 25.3242ZM6.73442 12.123C6.78951 12.1302 6.84637 12.1302 6.90145 12.123C7.3137 12.168 7.61932 12.5316 7.59711 12.951C7.5749 13.3704 7.23285 13.6989 6.81794 13.6989C6.40303 13.6989 6.06097 13.3704 6.03876 12.951C6.01744 12.5316 6.32218 12.168 6.73442 12.123ZM15.0921 12.123C15.1472 12.1302 15.2041 12.1302 15.2592 12.123C15.6714 12.168 15.9771 12.5316 15.9548 12.951C15.9326 13.3704 15.5906 13.6989 15.1757 13.6989C14.7608 13.6989 14.4187 13.3704 14.3965 12.951C14.3743 12.5316 14.6799 12.168 15.0921 12.123Z" fill="#A9A1A1"/>
</svg>
