<svg width="27" height="26" viewBox="0 0 27 26" fill="none" xmlns="http://www.w3.org/2000/svg">
<path d="M26.955 7.486C26.561 3.148 23.49 0.001 19.648 0.001C17.088 0.001 14.744 1.379 13.425 3.587C12.118 1.35 9.87098 0 7.35198 0C3.50998 0 0.438982 3.147 0.0449822 7.485C0.0139822 7.677 -0.114018 8.685 0.274982 10.33C0.834982 12.702 2.12798 14.86 4.01298 16.568L13.419 25.104L22.987 16.568C24.872 14.859 26.165 12.702 26.725 10.33C27.114 8.686 26.986 7.677 26.955 7.486ZM25.714 10.092C25.203 12.258 24.019 14.232 22.292 15.796L13.425 23.707L4.70998 15.798C2.97998 14.231 1.79598 12.258 1.28498 10.091C0.917982 8.535 1.06898 7.656 1.06998 7.65L1.07798 7.598C1.41598 3.798 4.05398 1.039 7.35198 1.039C9.78598 1.039 11.928 2.534 12.945 4.941L13.423 6.075L13.901 4.941C14.902 2.571 17.157 1.039 19.649 1.039C22.947 1.039 25.586 3.798 25.93 7.648C25.931 7.656 26.082 8.536 25.714 10.092Z" fill="#A9A1A1"/>
</svg>
